<svg xmlns="http://www.w3.org/2000/svg"><defs><pattern id="smallGrid" width="1" height="1" patternUnits="userSpaceOnUse"><path d="M 8 0 L 0 0" fill="none" stroke="black" stroke-width="0.5"></path></pattern><pattern id="gradientBg" width="80" height="80" patternUnits="userSpaceOnUse" patternTransform="rotate(-45)"><rect width="80" height="80" fill="url(#smallGrid)"></rect><rect d="M 80 0 L 0 0 0 80" fill="none"></rect></pattern></defs><defs><pattern id="smallGridR" width="1" height="1" patternUnits="userSpaceOnUse"><path d="M 8 0 L 0 0" fill="none" stroke="black" stroke-width="0.5"></path></pattern><pattern id="gradientBgR" width="80" height="80" patternUnits="userSpaceOnUse" patternTransform="rotate(45)"><rect width="80" height="80" fill="url(#smallGridR)"></rect><rect d="M 80 0 L 0 0 0 80" fill="none"></rect></pattern></defs><g clip-path="url(#clipPaths)"><rect x="0" y="0" width="20" height="164.375" fill="rgb(240, 240, 240)"></rect><g><rect x="0" y="0" width="20" height="3.75" fill="rgba(0,0,0,0.00)"></rect><rect x="0" y="3.750" width="20" height="2.5" fill="rgba(0,0,0,0.14)"></rect><rect x="0" y="6.250" width="20" height="12.5" fill="rgba(0,0,0,0.00)"></rect><rect x="0" y="18.750" width="20" height="2.5" fill="rgba(0,0,0,0.14)"></rect><rect x="0" y="21.250" width="20" height="9" fill="rgba(0,0,0,0.00)"></rect><rect x="0" y="30.250" width="20" height="2.5" fill="rgba(0,0,0,0.27)"></rect><rect x="0" y="32.750" width="20" height="5" fill="rgba(0,0,0,0.00)"></rect><rect x="0" y="37.750" width="20" height="12.25" fill="rgba(0,0,0,1.00)"></rect><rect x="0" y="50.000" width="20" height="5" fill="rgba(0,0,0,0.00)"></rect><rect x="0" y="55.000" width="20" height="8.5" fill="rgba(0,0,0,1.00)"></rect><rect x="0" y="63.500" width="20" height="11.5" fill="rgba(0,0,0,0.00)"></rect><rect x="0" y="75.000" width="20" height="1.5" fill="rgba(0,0,0,0.63)"></rect><rect x="0" y="76.500" width="20" height="2.25" fill="url(#gradientBgR)"></rect></g><g><rect x="0" y="81.000" width="20" height="14.25" fill="url(#gradientBgR)"></rect><rect x="0" y="95.250" width="20" height="18.25" fill="rgba(0,0,0,0.00)"></rect><rect x="0" y="113.500" width="20" height="4" fill="rgba(0,0,0,0.27)"></rect><rect x="0" y="117.500" width="20" height="3.75" fill="rgba(0,0,0,0.00)"></rect><rect x="0" y="121.250" width="20" height="9" fill="rgba(0,0,0,1.00)"></rect><rect x="0" y="130.250" width="20" height="9" fill="rgba(0,0,0,0.00)"></rect><rect x="0" y="139.250" width="20" height="4.625" fill="rgba(0,0,0,0.75)"></rect><rect x="0" y="143.875" width="20" height="17" fill="rgba(0,0,0,0.00)"></rect><rect x="0" y="160.875" width="20" height="3.5" fill="rgba(0,0,0,0.75)"></rect></g><rect x="0" y="78.750" width="20" height="2.25" fill="url(#gradientBg)"></rect></g><defs><clipPath id="clipPaths"><rect x="0" y="0" width="20" height="78.75" rx="3"></rect><rect x="0" y="81" height="83.375" width="20" rx="3" ry="3"></rect><rect x="2.5" y="78.75" height="2.25" width="15"></rect></clipPath></defs></svg>