<svg xmlns="http://www.w3.org/2000/svg" style="width: 100%; height: 100%;"><defs><pattern id="smallGrid" width="1" height="1" patternUnits="userSpaceOnUse"><path d="M 8 0 L 0 0" fill="none" stroke="black" stroke-width="0.5"></path></pattern><pattern id="gradientBg" width="80" height="80" patternUnits="userSpaceOnUse" patternTransform="rotate(-45)"><rect width="80" height="80" fill="url(#smallGrid)"></rect><rect d="M 80 0 L 0 0 0 80" fill="none"></rect></pattern></defs><defs><pattern id="smallGridR" width="1" height="1" patternUnits="userSpaceOnUse"><path d="M 8 0 L 0 0" fill="none" stroke="black" stroke-width="0.5"></path></pattern><pattern id="gradientBgR" width="80" height="80" patternUnits="userSpaceOnUse" patternTransform="rotate(45)"><rect width="80" height="80" fill="url(#smallGridR)"></rect><rect d="M 80 0 L 0 0 0 80" fill="none"></rect></pattern></defs><g clip-path="url(#clipPaths)"><rect x="0" y="0" width="20" height="154" fill="rgb(240, 240, 240)"></rect><g><rect x="0" y="0" width="20" height="3" fill="rgba(0,0,0,0.00)"></rect><rect x="0" y="3.000" width="20" height="5" fill="rgba(0,0,0,0.62)"></rect><rect x="0" y="8.000" width="20" height="14.5" fill="rgba(0,0,0,0.00)"></rect><rect x="0" y="22.500" width="20" height="3.5" fill="rgba(0,0,0,0.26)"></rect><rect x="0" y="26.000" width="20" height="5.5" fill="rgba(0,0,0,0.00)"></rect><rect x="0" y="31.500" width="20" height="7.5" fill="rgba(0,0,0,0.73)"></rect><rect x="0" y="39.000" width="20" height="12" fill="rgba(0,0,0,0.00)"></rect><rect x="0" y="51.000" width="20" height="4.5" fill="rgba(0,0,0,0.73)"></rect><rect x="0" y="55.500" width="20" height="3" fill="rgba(0,0,0,0.00)"></rect></g><g><rect x="0" y="62.000" width="20" height="11.5" fill="rgba(0,0,0,0.00)"></rect><rect x="0" y="73.500" width="20" height="8" fill="rgba(0,0,0,0.38)"></rect><rect x="0" y="81.500" width="20" height="10" fill="rgba(0,0,0,0.00)"></rect><rect x="0" y="91.500" width="20" height="12.5" fill="rgba(0,0,0,0.73)"></rect><rect x="0" y="104.000" width="20" height="9" fill="rgba(0,0,0,0.00)"></rect><rect x="0" y="113.000" width="20" height="10.5" fill="rgba(0,0,0,0.85)"></rect><rect x="0" y="123.500" width="20" height="4.75" fill="rgba(0,0,0,0.00)"></rect><rect x="0" y="128.250" width="20" height="7.25" fill="rgba(0,0,0,0.73)"></rect><rect x="0" y="135.500" width="20" height="18.5" fill="rgba(0,0,0,0.00)"></rect></g><rect x="0" y="60.250" width="20" height="1.75" fill="url(#gradientBg)"></rect></g><defs><clipPath id="clipPaths"><rect x="0" y="0" width="20" height="60.25" rx="3"></rect><rect x="0" y="62.5" height="91.5" width="20" rx="3" ry="3"></rect><rect x="2.5" y="60.25" height="2.25" width="15"></rect></clipPath></defs></svg>